<svg width="364" height="111" viewBox="0 0 364 111" fill="none" xmlns="http://www.w3.org/2000/svg" preserveAspectRatio="none">
<path d="M15.7094 0.666992C8.28286 1.15223 1.82446 7.63995 1.2377 14.9863C0.819575 20.193 0.707139 25.68 0.677155 31.126L0.666412 36.5469C0.693085 55.5301 0.839205 74.5937 1.06583 93.5645C1.18136 102.435 8.63326 110.157 17.6391 109.787H17.6635C86.9783 109.537 156.282 109.638 225.595 110.113L239.457 110.213C268.198 110.28 297.033 110.013 325.672 109.72C332.05 109.653 338.403 109.083 344.689 108.022C350.9 106.974 356.641 106.236 362.53 102.813C362.449 102.725 362.342 102.624 362.215 102.515C361.966 102.301 361.728 102.143 361.605 102.088C359.939 101.337 358.216 100.776 356.457 100.159C354.715 99.5476 352.952 98.8838 351.296 97.9385C338.134 90.4424 330.15 76.2473 329.893 61.1182V61.1172C329.719 50.1548 329.933 39.1789 330.547 28.1895V28.1797L330.548 28.1689L330.633 27.0225C330.988 21.257 330.28 15.0776 327.954 10.1533C325.493 4.94244 321.234 1.14786 314.43 0.666992H15.7094Z" fill="url(#paint0_linear_1_1206)" stroke="url(#paint1_linear_1_1206)" stroke-width="1.33333"/>
<defs>
<linearGradient id="paint0_linear_1_1206" x1="311.319" y1="23.3333" x2="25.9861" y2="92" gradientUnits="userSpaceOnUse">
<stop stop-color="#8FECD9" stop-opacity="0.5"/>
<stop offset="1" stop-color="#8FECD9" stop-opacity="0.3"/>
</linearGradient>
<linearGradient id="paint1_linear_1_1206" x1="138.666" y1="17.3333" x2="155.999" y2="71.3333" gradientUnits="userSpaceOnUse">
<stop stop-color="#43D4E6"/>
<stop offset="1" stop-color="#E5F7F3" stop-opacity="0"/>
</linearGradient>
</defs>
</svg>
